<?xml version="1.0" encoding="utf-8"?>
<!-- Generator: Adobe Illustrator 21.1.0, SVG Export Plug-In . SVG Version: 6.00 Build 0)  -->
<!DOCTYPE svg PUBLIC "-//W3C//DTD SVG 1.1//EN" "http://www.w3.org/Graphics/SVG/1.1/DTD/svg11.dtd">
<svg version="1.1" id="レイヤー_1" xmlns="http://www.w3.org/2000/svg" xmlns:xlink="http://www.w3.org/1999/xlink" x="0px"
	 y="0px" viewBox="0 0 1048 432" style="enable-background:new 0 0 1048 432;" xml:space="preserve">
<style type="text/css">
	.st0{fill:#FFFFFF;}
</style>
<g>
	<path class="st0" d="M268,151v253.9c0,27-14.1,27.9-64.8,27.3c-1-5.5-4.2-14.4-7.4-19.9c8.3,0.3,16.7,0.3,23.4,0.3
		c9.6,0,17,0,19.9-0.3c5.8,0,7.7-1.6,7.7-7.7V171.5H21.1v260.3H0.3V151H268z M208.6,390.5h-19.3v-18.3H75.7v22.8H56.8V285.2l25,1.6
		c-0.3,2.2-1.9,3.9-6.1,4.2v62.6h46.2v-94.4H37.8v-18.6H233v18.6h-85.4c-0.6,1.6-2.6,2.2-5.8,2.9v91.5h47.5v-68.4l25.4,1.6
		c-0.3,2.2-1.9,3.9-6.1,4.5V390.5z M87.3,237.3c-3.2-14.4-13.5-36-24.7-51.7l17.3-6.4c11.9,15.4,22.5,36.6,26,51.4L87.3,237.3z
		 M208.6,186c-1,1.9-3.2,2.9-6.4,2.9c-7.1,14.4-18.3,36-27.6,49.8c-3.5-1.3-12.5-5.1-16.4-6.4c9-14.8,19.9-38.5,25.7-54.6L208.6,186
		z"/>
	<path class="st0" d="M468.6,206.2v202.6c0,21.5-9.6,22.5-44.3,22.5c-1-4.8-3.5-12.8-6.4-17.7c6.4,0,12.2,0.3,17,0.3
		c13.2,0,14.8,0,14.8-5.1v-68.4h-43.3c-2.6,32.1-9.3,66.1-23.8,92.1c-3.2-3.2-11.6-8.3-15.7-10.3c20.9-37.9,22.8-90.2,22.8-128.7
		v-87.3H468.6z M664.4,298.6h-39.5c12.8,14.4,28.2,26,46.2,32.7c-4.2,3.5-9.6,10.3-12.2,15.4c-7.4-3.2-14.4-7.1-20.9-11.9
		c-1,1.3-3.2,1.9-6.1,1.9c-6.7,8.3-17.7,20.2-26.6,28.6c0,0-12.5-8-12.8-8c8.7-9,20.5-23.8,26.6-33.7l18,10.9v-0.3
		c-13.2-9.3-24.7-21.5-34.3-35.6h-63.9c-6.7,10-14.1,19.3-22.8,27.3c10,9.3,19.9,22.8,23.8,32.4l-15.1,8.3
		c-3.5-8.7-11.9-20.9-20.5-30.5c-7.1,5.5-14.4,10.3-22.5,14.4c-2.9-4.2-8.3-10.6-12.2-13.8c18.9-9.3,34.3-22.1,46.9-38.2h-39.2
		v-16.4h50.4c4.8-8.3,9.3-17.3,12.8-27h-53.6v-16.1h25c-2.6-9.3-8.7-22.5-15.4-32.1l16.1-5.1c7.1,10,14.1,23.8,16.4,33.1l-11.2,4.2
		H546c3.9-12.5,6.7-26.3,9-40.8l6.7,1v-21.2h-88v23.1h-21.5v-23.1h-77.7V160h77.7v-26.6l27.9,1.9c-0.3,2.2-2.2,3.9-6.4,4.5V160h88
		v-26.6l27.6,1.9c-0.3,2.2-1.9,3.9-6.1,4.5V160h79.6v18.3h-79.6v22.8h-10.6v0.3l6.7,0.6c-0.6,2.2-2.6,3.5-6.4,3.9
		c-1.9,11.6-4.5,22.8-7.4,33.4h40.1c-2.6-1-4.8-2.2-6.4-2.6c6.4-10.3,14.4-25.7,18.6-36l21.5,8.3c-1,1.6-2.9,2.6-6.1,2.6
		c-4.2,8-10.9,18.6-17,27.6h38.8v16.1h-56.2c3.9,9.6,8.3,18.6,13.8,27h51.7V298.6z M408.3,293.5c0,9-0.3,18.9-0.6,29.2h42.1v-41.4
		h-41.4V293.5z M449.7,224.2h-41.4v39.5h41.4V224.2z M477.3,400.7c18.6-7.1,44.9-18.9,71.9-30.5l3.5,15.1l-61.6,29.2
		c0,2.2-1.3,4.2-3.2,5.1L477.3,400.7z M576.8,379.2l11.6-11.6c24.1,10.9,55.2,27.9,71.6,39.5l-12.2,13.2
		c-15.7-11.6-46.2-29.2-70.9-40.8v33.4c0,16.1-5.5,19.3-39.2,18.6c-1-4.5-3.2-10.9-5.8-15.4c10.6,0.3,19.3,0.3,22.5,0.3
		c2.9,0,3.5-1,3.5-3.9V309.9l24.7,1.6c-0.3,1.9-1.9,3.5-5.8,4.2V379.2z M560.4,255.3c-3.5,9.6-7.4,18.6-11.9,27h44.3
		c-4.2-8.7-8-17.7-11.2-27H560.4z"/>
	<path class="st0" d="M1044.8,179.9H887.5c-1.6,0.6-3.2,1-5.1,1c-9.3,27.6-22.2,57.1-38.5,85.1h181.4v165.6h-22.5V411H842.3v20.9
		h-21.8V301.2c-16.1,21.8-34.3,41.4-54.9,57.8c-3.5-4.8-10.9-12.8-15.4-17c51.7-39.2,88.6-102.4,108.2-162.1h-95.7v-21.2h282.2
		V179.9z M1002.8,389.8v-103H842.3v103H1002.8z"/>
	<path class="st0" d="M3.5,42.9c0-28.5,13.4-42.4,34.6-42.4c25.1,0,34.7,18.8,34.7,42.4c0,24.8-9.9,42.6-34.7,42.6
		C13.5,85.6,3.5,68.1,3.5,42.9z M14.8,42.9c0,12.9,2.3,23.5,6.9,30.2c3.7,4.7,9.8,7.8,16.2,7.8c6.5,0,12.6-3.1,16.3-7.8
		c4.6-6.7,6.9-17.3,6.9-30.2c0-15.4-2.6-24.7-7.1-30.3C50,7.4,44.4,5.1,38.1,5.1C17.3,5.1,14.8,27.1,14.8,42.9z"/>
	<path class="st0" d="M140.3,33.3l21.3,38.2c4.4,7.7,5.8,8.5,10.9,8.5v3.9h-16.3l-23-42.5l-7.6,9.8v19.9c0,8,0.7,8.9,8,8.9v3.9
		h-27.7v-3.9c8,0,8.8-0.9,8.8-8.8V14.8c0-8-0.8-8.8-8.8-8.8V2.2h27.2V6c-6.9,0-7.6,0.9-7.6,8.8v27.8h0.3L147,15.2
		c2.8-3.6,4.4-5.8,4.4-7.3c0-1.3-1.5-1.9-5-1.9V2.2h21.2V6c-4.4,0-6.2,0.6-10,5.5L140.3,33.3z"/>
	<path class="st0" d="M244.9,58.1h-27.5l-3.9,13.6c-0.7,2.4-1.1,4.2-1.1,5.4c0,2.4,1.7,3,5.8,3v3.9H200v-3.9c4,0,5.3-1.1,6.9-6.3
		l22.7-73.3h6.1l24.9,71.7c2.2,6.6,3.5,7.8,7.5,7.8v3.9h-23.5v-3.9c4.4,0,6-0.8,6-3c0-1.1-0.4-2.5-1-4.4L244.9,58.1z M243.2,53.2
		l-12.7-37.9h-0.3l-11.3,37.9H243.2z"/>
	<path class="st0" d="M417.6,28.7v27.6h-4.7c0-10.6-1-11.5-5.8-11.5h-13.2v26.4c0,8.2,0.6,8.8,10.5,8.8v3.9h-30.1v-3.9
		c8,0,8.8-0.9,8.8-8.8V14.8c0-8-0.9-8.8-8.8-8.8V2.2h50.2L428,20h-4.8c-2.9-12.1-4-13-10.1-13h-15.2c-3.7,0-4.1,0.7-4.1,5.5v27.4
		h13.1c4.8,0,6-1.4,6-11.2H417.6z"/>
	<path class="st0" d="M479.5,55.7c0,9.6,1.1,24.1,18.6,24.1c17.5,0,18.3-15.1,18.3-23.8V14.8c0-8.2-0.8-8.8-7.8-8.8V2.2h21V6
		c-7.1,0-7.7,0.8-7.7,8.8v42.5c0,16.9-6.7,28.2-25.7,28.2c-25.2,0-27.8-15.1-27.8-29.4V14.8c0-8-0.6-8.8-8-8.8V2.2h27V6
		c-7.4,0-7.9,0.6-7.9,8.8V55.7z"/>
	<path class="st0" d="M595,68.6c0,10.2-1.2,28.7-20.9,28.7c-9.9,0-16.5-3.9-16.5-9c0-2.2,1.5-3.9,4-3.9c2.5,0,4.3,1.1,6.2,4.4
		c1.5,2.6,3.4,4,6.6,4c7.8,0,9.9-7.5,9.9-21.5V15c0-8.3-0.7-9-9.8-9V2.2h29.3V6c-8,0-8.7,0.9-8.7,8.9V68.6z"/>
	<path class="st0" d="M637.6,80.1c8.8,0,9.5-0.9,9.5-8.8V14.8c0-8-0.7-8.8-9.4-8.8V2.2h29.8V6c-8.8,0-9.5,0.8-9.5,8.8v56.4
		c0,7.9,0.7,8.8,9.5,8.8v3.9h-29.9V80.1z"/>
	<path class="st0" d="M762.3,80.1c8.8,0,9.5-0.9,9.5-8.8V14.8c0-8-0.7-8.8-9.4-8.8V2.2h29.8V6c-8.8,0-9.5,0.8-9.5,8.8v56.4
		c0,7.9,0.7,8.8,9.5,8.8v3.9h-29.9V80.1z"/>
	<path class="st0" d="M830.2,63.4c3.4,13.7,8.7,17.2,18.4,17.2c7.9,0,15.8-4.8,15.8-15.1c0-9.6-5.2-13-17-20.6
		c-12.1-7.8-20.1-12.9-20.1-25c0-7.9,5.3-19.4,24.6-19.4c6.7,0,12.2,1,17.1,3c0.6,4.4,1.4,10.8,2.5,16.5l-4.8,0.9
		c-2.2-11.8-4.6-15.4-15.2-15.4c-7.3,0-14.1,4-14.1,12c0,7.9,4.5,11.2,15.5,18.4c8.7,5.7,14.2,8.9,17.4,13.3c2.8,3.6,4.5,8,4.5,13.8
		c0,13.4-10.4,22.6-26.9,22.6c-6.4,0-13.3-1.3-19.3-3.4c-0.8-7.2-2-12.6-3.2-17.5L830.2,63.4z"/>
	<path class="st0" d="M984.6,6c-8.2,0-8.8,0.8-8.8,8.8v56.4c0,7.9,0.7,8.8,8.8,8.8v3.9h-27.2v-3.9c6.9,0,7.6-0.8,7.6-8.6V43.8h-35.8
		v27.7c0,7.8,0.7,8.6,7.6,8.6v3.9h-27.2v-3.9c8,0,8.8-0.9,8.8-8.8V14.8c0-8-0.8-8.8-8.8-8.8V2.2h27.2V6c-6.9,0-7.6,0.7-7.6,8.5v24.4
		H965V14.6c0-7.9-0.7-8.6-7.6-8.6V2.2h27.2V6z"/>
	<path class="st0" d="M1018.1,80.1c8.8,0,9.5-0.9,9.5-8.8V14.8c0-8-0.7-8.8-9.4-8.8V2.2h29.8V6c-8.8,0-9.5,0.8-9.5,8.8v56.4
		c0,7.9,0.7,8.8,9.5,8.8v3.9h-29.9V80.1z"/>
</g>
</svg>
